<?xml version="1.0" standalone="no"?>
<!DOCTYPE svg PUBLIC "-//W3C//DTD SVG 20010904//EN"
 "http://www.w3.org/TR/2001/REC-SVG-20010904/DTD/svg10.dtd">
<svg version="1.0" xmlns="http://www.w3.org/2000/svg"
 width="550.000000pt" height="495.000000pt" viewBox="0 0 550.000000 495.000000"
 preserveAspectRatio="xMidYMid meet">

<g transform="translate(0.000000,495.000000) scale(0.100000,-0.100000)"
fill="#000000" stroke="none">
<path d="M550 4675 l0 -275 -275 0 -275 0 0 -285 0 -285 275 0 275 0 0 -260 0
-260 -275 0 -275 0 0 -285 0 -285 275 0 275 0 0 -265 0 -265 -275 0 -275 0 0
-285 0 -285 275 0 275 0 0 -260 0 -260 -275 0 -275 0 0 -285 0 -285 275 0 275
0 0 -275 0 -275 285 0 285 0 0 275 0 275 260 0 260 0 0 -275 0 -275 1110 0
1110 0 0 275 0 275 260 0 260 0 0 -275 0 -275 285 0 285 0 0 275 0 275 275 0
275 0 0 285 0 285 -275 0 -275 0 0 260 0 260 275 0 275 0 0 285 0 285 -275 0
-275 0 0 265 0 265 275 0 275 0 0 285 0 285 -275 0 -275 0 0 260 0 260 275 0
275 0 0 285 0 285 -275 0 -275 0 0 275 0 275 -285 0 -285 0 0 -275 0 -275
-260 0 -260 0 0 275 0 275 -1110 0 -1110 0 0 -275 0 -275 -260 0 -260 0 0 275
0 275 -285 0 -285 0 0 -275z m540 -10 l0 -255 -255 0 -255 0 0 255 0 255 255
0 255 0 0 -255z m1100 0 l0 -255 -260 0 -260 0 0 255 0 255 260 0 260 0 0
-255z m540 0 l0 -255 -255 0 -255 0 0 255 0 255 255 0 255 0 0 -255z m550 0
l0 -255 -255 0 -255 0 0 255 0 255 255 0 255 0 0 -255z m550 0 l0 -255 -260 0
-260 0 0 255 0 255 260 0 260 0 0 -255z m1090 0 l0 -255 -255 0 -255 0 0 255
0 255 255 0 255 0 0 -255z m-4372 -547 l2 -258 -260 0 -260 0 0 260 0 260 258
-2 257 -3 3 -257z m552 2 l0 -260 -265 0 -265 0 0 260 0 260 265 0 265 0 0
-260z m540 0 l0 -260 -260 0 -260 0 0 253 c0 140 3 257 7 260 3 4 120 7 260 7
l253 0 0 -260z m2190 0 l0 -260 -1080 0 -1080 0 0 260 0 260 1080 0 1080 0 0
-260z m548 -2 l2 -258 -260 0 -260 0 0 260 0 260 258 -2 257 -3 3 -257z m552
2 l0 -260 -265 0 -265 0 0 260 0 260 265 0 265 0 0 -260z m540 0 l0 -260 -260
0 -260 0 0 253 c0 140 3 257 7 260 3 4 120 7 260 7 l253 0 0 -260z m-4380
-550 l0 -260 -255 0 -255 0 0 260 0 260 255 0 255 0 0 -260z m550 0 l0 -260
-260 0 -260 0 0 260 0 260 260 0 260 0 0 -260z m550 0 l0 -260 -260 0 -260 0
0 260 0 260 260 0 260 0 0 -260z m540 0 l0 -260 -255 0 -255 0 0 260 0 260
255 0 255 0 0 -260z m550 0 l0 -260 -255 0 -255 0 0 260 0 260 255 0 255 0 0
-260z m550 0 l0 -260 -260 0 -260 0 0 260 0 260 260 0 260 0 0 -260z m550 0
l0 -260 -260 0 -260 0 0 260 0 260 260 0 260 0 0 -260z m540 0 l0 -260 -255 0
-255 0 0 260 0 260 255 0 255 0 0 -260z m-4372 -547 l-3 -258 -257 -3 -258 -2
0 260 0 260 260 0 260 0 -2 -257z m552 -3 l0 -260 -265 0 -265 0 0 260 0 260
265 0 265 0 0 -260z m540 0 l0 -260 -260 0 -260 0 0 260 0 260 260 0 260 0 0
-260z m2190 0 l0 -260 -1080 0 -1080 0 0 260 0 260 1080 0 1080 0 0 -260z
m550 0 l0 -260 -260 0 -260 0 0 260 0 260 260 0 260 0 0 -260z m550 0 l0 -260
-265 0 -265 0 0 260 0 260 265 0 265 0 0 -260z m540 0 l0 -260 -257 2 -258 3
-3 258 -2 257 260 0 260 0 0 -260z m-3830 -545 l0 -265 -260 0 -260 0 0 265 0
265 260 0 260 0 0 -265z m2740 0 l0 -265 -260 0 -260 0 0 265 0 265 260 0 260
0 0 -265z m-3290 0 l0 -255 -255 0 -255 0 0 255 0 255 255 0 255 0 0 -255z
m1100 0 l0 -255 -260 0 -260 0 0 255 0 255 260 0 260 0 0 -255z m540 0 l0
-255 -255 0 -255 0 0 255 0 255 255 0 255 0 0 -255z m550 0 l0 -255 -255 0
-255 0 0 255 0 255 255 0 255 0 0 -255z m550 0 l0 -255 -260 0 -260 0 0 255 0
255 260 0 260 0 0 -255z m1090 0 l0 -255 -255 0 -255 0 0 255 0 255 255 0 255
0 0 -255z m-4372 -547 l2 -258 -260 0 -260 0 0 260 0 260 258 -2 257 -3 3
-257z m552 2 l0 -260 -265 0 -265 0 0 260 0 260 265 0 265 0 0 -260z m540 0
l0 -260 -260 0 -260 0 0 260 0 260 260 0 260 0 0 -260z m2190 0 l0 -260 -1080
0 -1080 0 0 260 0 260 1080 0 1080 0 0 -260z m550 0 l0 -260 -260 0 -260 0 0
260 0 260 260 0 260 0 0 -260z m550 0 l0 -260 -265 0 -265 0 0 260 0 260 265
0 265 0 0 -260z m540 0 l0 -260 -260 0 -260 0 0 253 c0 140 3 257 7 260 3 4
120 7 260 7 l253 0 0 -260z m-4380 -550 l0 -260 -255 0 -255 0 0 260 0 260
255 0 255 0 0 -260z m550 0 l0 -260 -260 0 -260 0 0 260 0 260 260 0 260 0 0
-260z m550 0 l0 -260 -260 0 -260 0 0 260 0 260 260 0 260 0 0 -260z m540 0
l0 -260 -255 0 -255 0 0 260 0 260 255 0 255 0 0 -260z m550 0 l0 -260 -255 0
-255 0 0 260 0 260 255 0 255 0 0 -260z m550 0 l0 -260 -260 0 -260 0 0 260 0
260 260 0 260 0 0 -260z m550 0 l0 -260 -260 0 -260 0 0 260 0 260 260 0 260
0 0 -260z m540 0 l0 -260 -255 0 -255 0 0 260 0 260 255 0 255 0 0 -260z
m-4372 -547 l-3 -258 -257 -3 -258 -2 0 260 0 260 260 0 260 0 -2 -257z m552
-3 l0 -260 -265 0 -265 0 0 260 0 260 265 0 265 0 0 -260z m540 0 l0 -260
-260 0 -260 0 0 260 0 260 260 0 260 0 0 -260z m2190 0 l0 -260 -1080 0 -1080
0 0 260 0 260 1080 0 1080 0 0 -260z m550 0 l0 -260 -260 0 -260 0 0 260 0
260 260 0 260 0 0 -260z m550 0 l0 -260 -265 0 -265 0 0 260 0 260 265 0 265
0 0 -260z m540 0 l0 -260 -257 2 -258 3 -3 258 -2 257 260 0 260 0 0 -260z
m-4380 -545 l0 -255 -255 0 -255 0 0 255 0 255 255 0 255 0 0 -255z m1100 0
l0 -255 -260 0 -260 0 0 255 0 255 260 0 260 0 0 -255z m540 0 l0 -255 -255 0
-255 0 0 255 0 255 255 0 255 0 0 -255z m550 0 l0 -255 -255 0 -255 0 0 255 0
255 255 0 255 0 0 -255z m550 0 l0 -255 -260 0 -260 0 0 255 0 255 260 0 260
0 0 -255z m1090 0 l0 -255 -255 0 -255 0 0 255 0 255 255 0 255 0 0 -255z"/>
</g>
</svg>
